<?xml version="1.0" encoding="utf-8"?>
<!-- Generator: Adobe Illustrator 27.5.0, SVG Export Plug-In . SVG Version: 6.00 Build 0)  -->
<svg version="1.1" xmlns="http://www.w3.org/2000/svg" xmlns:xlink="http://www.w3.org/1999/xlink" x="0px" y="0px"
	 viewBox="0 0 500 500" style="enable-background:new 0 0 500 500;" xml:space="preserve">
<g id="Floor">
	<path style="fill:#F5F5F5;" d="M413.856,247.984c-91.088-52.59-238.289-52.589-328.785,0.001
		C-5.43,300.579-4.95,385.844,86.138,438.433c91.094,52.593,238.295,52.592,328.797-0.002
		C505.43,385.841,504.95,300.577,413.856,247.984z"/>
</g>
<g id="Shadows_1_">
	<polygon style="fill:#E0E0E0;" points="229.286,445.345 248.436,463.608 301.905,444.858 282.749,426.598 	"/>
	<polygon style="fill:#E0E0E0;" points="133.616,380.819 141.416,385.322 167.374,370.237 122.972,344.601 97.014,359.687 
		108.403,366.262 90.362,368.905 105.89,404.05 141.575,398.828 	"/>
	<path style="fill:#E0E0E0;" d="M367.816,347.575l50.768-21.113l-21.545-17.345l-40.5,16.843l-0.796-9.333l1.47,0.345l13.743-19.768
		l-51.29-12.039l37.163-21.456l-25.958-15.085l-44.402,25.636l23.427,13.615l-10.754,15.468l19.93,4.678l-25.868,0.692l11.45-22.815
		l-35.368-6.02l15.584,20.831h0l-15.584-20.831L258.081,302.2l-60.731,1.624l1.52,17.811l-15.842-3.753l-13.841,19.749
		l44.064,10.433l-49.035,2.591l3.464,21.245l57.732-3.051l0.589,1.456l-32.978,3.433l3.9,12.358l-31.314,10.271l2.128,2.168
		l-8.782-2.933v0l-31.125,31.393h0l0,0v0l0,0l31.952,10.672l23.299-23.5l13.508,13.76l29.75-9.76l-2.475,2.497l0,0h0l0,0l0,0
		l31.952,10.672l21.826-22.014l2.966,1.724l41.035-23.692l30.633-10.816l-21.653-20.513l0.514,0.201l20.567-17.66l-24.035-9.418
		l22.659-0.606l-4.057,1.687L367.816,347.575z M165.643,417.961l-5.11-17.078L165.643,417.961L165.643,417.961z M287.199,320.678
		l5.326-10.613l1.144,13.408l-4.841,4.157l-12.409-8.785L287.199,320.678z M261.683,323.462l-0.617-7.228l11.865,2.018
		l-33.725,15.966l1.82-2.596l-28.854-6.836L261.683,323.462z M256.645,394.81l-0.077-0.258L256.645,394.81L256.645,394.81z
		 M262.114,391.652l-7.126-2.38l0,0L240.089,404.3l-6.238-19.764l52.85-7.079L262.114,391.652z M219.21,407.866l19.339-2.013
		l-10.709,10.801L219.21,407.866z M261.677,411.63L261.677,411.63l-4.195-14.022l0,0L261.677,411.63z M291.911,374.448l-7.518-18.59
		l-55.272,7.396l-1.939-11.891l0.002,0.001l4.786-6.826l17.527,12.408L287.3,339.05l24.045,9.422l-23.175,8.182l20.065,19.009
		l-9.184-5.337L291.911,374.448z"/>
	<polygon style="fill:#E0E0E0;" points="297.478,437.408 333.603,441.638 345.821,406.105 309.696,401.875 	"/>
	<path style="fill:#E0E0E0;" d="M343.154,364.077c17.986-10.384,47.052-10.384,64.921,0c17.871,10.385,17.776,27.221-0.21,37.605
		c-17.987,10.385-47.053,10.385-64.924,0C325.072,391.298,325.167,374.462,343.154,364.077z"/>
	<path style="fill:#E0E0E0;" d="M264.391,275.017l-106.387,61.86c-2.554,1.485-5.707,1.49-8.266,0.012l-54.295-31.36
		c-1.371-0.792-1.374-2.77-0.005-3.566l106.387-61.86c2.554-1.485,5.707-1.49,8.266-0.012l54.295,31.36
		C265.757,272.243,265.76,274.221,264.391,275.017z"/>
</g>
<g id="Device">
	<g>
		<g>
			<g>
				<polygon style="fill:#BA68C8;" points="153.918,312.796 153.854,335.436 261.205,273.05 261.269,250.41 				"/>
				<path style="fill:#BA68C8;" d="M135.444,280.792l-37.412-21.6l-0.125,43.942l55.947,32.301l0.064-22.639
					C146.705,300.297,142.656,293.291,135.444,280.792z"/>
				<path style="opacity:0.3;" d="M135.444,280.792l-37.412-21.6l-0.125,43.942l55.947,32.301l0.064-22.639
					C146.705,300.297,142.656,293.291,135.444,280.792z"/>
				<path style="fill:#BA68C8;" d="M153.918,312.796l107.352-62.386c-7.213-12.499-11.261-19.505-18.474-32.004l-107.352,62.386
					C142.656,293.291,146.705,300.297,153.918,312.796z"/>
				<path style="opacity:0.1;" d="M153.918,312.796l107.352-62.386c-7.213-12.499-11.261-19.505-18.474-32.004l-107.352,62.386
					C142.656,293.291,146.705,300.297,153.918,312.796z"/>
				<g style="opacity:0.5;">
					<path style="fill:#FFFFFF;" d="M242.35,233.198l6.294,13.247c0.194,0.409,0.09,0.888-0.233,1.074l-17.726,10.234
						c-0.323,0.186-0.739,0.008-0.933-0.401l-6.264-13.197c-0.04-0.091-0.059-0.16-0.075-0.228c-0.022-0.123-0.026-0.196-0.02-0.268
						c0.014-0.105,0.027-0.168,0.047-0.226c0.035-0.088,0.068-0.145,0.107-0.197c0.07-0.078,0.116-0.122,0.174-0.155l17.726-10.234
						c0.055-0.032,0.114-0.049,0.172-0.061c0.101-0.012,0.161-0.013,0.221,0c0.076,0.019,0.131,0.043,0.182,0.073
						c0.094,0.056,0.147,0.097,0.195,0.15C242.285,233.088,242.319,233.139,242.35,233.198z M247.128,246.38l-5.168-10.887
						l-3.807,12.323c-0.054,0.175-0.161,0.309-0.292,0.385c-0.126,0.073-0.276,0.096-0.43,0.053l-12.066-3.273l5.202,10.961
						L247.128,246.38 M240.53,235.256l-14.393,8.31l10.914,2.961L240.53,235.256"/>
				</g>
				<polygon style="fill:#BA68C8;" points="242.795,218.406 205.383,196.807 98.032,259.192 135.444,280.792 				"/>
				<polygon style="opacity:0.2;" points="242.795,218.406 205.383,196.807 98.032,259.192 135.444,280.792 				"/>
				<polygon style="opacity:0.2;" points="205.383,196.807 98.032,259.192 120.92,272.407 228.272,210.021 				"/>
				<polygon style="fill:#455A64;" points="179.924,262.093 143.879,283.04 156.172,304.336 192.217,283.389 				"/>
				<g style="opacity:0.5;">
					<g>
						<polygon style="fill:#FFFFFF;" points="171.822,283.336 170.335,284.195 167.336,278.857 169.564,277.571 						"/>
					</g>
					<g>
						<path style="fill:#FFFFFF;" d="M171.417,284.464c0.66-0.381,1.374-0.095,1.723,0.64c0.342,0.721,0.167,1.572-0.492,1.953
							c-0.66,0.381-1.404,0.061-1.747-0.66C170.552,285.662,170.757,284.845,171.417,284.464z"/>
					</g>
					<g>
						<path style="fill:#FFFFFF;" d="M178.53,281.746c0.826,0.654,1.329,1.714,1.346,2.836c0.017,1.121-0.458,2.069-1.27,2.537
							l-9.318,5.38c-0.812,0.469-1.788,0.359-2.614-0.295c-0.828-0.652-1.332-1.713-1.346-2.836l-0.188-12.903
							c-0.017-1.121,0.458-2.069,1.27-2.537c0.809-0.467,1.785-0.357,2.614,0.295L178.53,281.746z M178.828,284.463
							c-0.008-0.673-0.309-1.308-0.808-1.702l-9.505-7.52c-0.496-0.396-1.082-0.46-1.568-0.179
							c-0.486,0.281-0.772,0.849-0.763,1.525l0.187,12.899c0.012,0.675,0.314,1.31,0.808,1.702c0.497,0.391,1.082,0.46,1.571,0.177
							l9.318-5.38C178.554,285.705,178.839,285.134,178.828,284.463"/>
					</g>
				</g>
				<polygon style="fill:#BA68C8;" points="195.015,281.763 182.722,260.467 179.924,262.093 192.217,283.389 				"/>
				<polygon style="opacity:0.3;" points="195.015,281.763 182.722,260.467 179.924,262.093 192.217,283.389 				"/>
				<polygon style="opacity:0.1;" points="156.172,304.336 192.217,283.389 191.079,281.493 158.077,300.672 146.75,281.371 
					143.879,283.04 				"/>
				<g>
					<polygon style="fill:#455A64;" points="256.353,264.725 252.581,266.902 256.366,269.086 					"/>
					<polygon style="fill:#37474F;" points="252.581,266.902 159.229,320.769 159.241,325.13 256.366,269.086 256.366,269.086 					
						"/>
				</g>
			</g>
			<g>
				<g>
					<path style="fill:none;" d="M120.799,105.471c0.114,0.125,0.245,0.245,0.373,0.367c-0.13-0.124-0.265-0.248-0.381-0.375
						C120.794,105.465,120.796,105.468,120.799,105.471z"/>
					<path style="fill:none;" d="M120.366,104.937c0.055,0.074,0.118,0.147,0.176,0.22c-0.062-0.076-0.125-0.152-0.182-0.229
						C120.362,104.931,120.364,104.934,120.366,104.937z"/>
					<path style="fill:none;" d="M119.881,104.187c0.05,0.092,0.109,0.183,0.165,0.274c-0.058-0.095-0.119-0.189-0.171-0.285
						C119.878,104.179,119.879,104.183,119.881,104.187z"/>
					<path style="fill:none;" d="M121.755,106.346c0.074,0.06,0.15,0.118,0.225,0.178c-0.081-0.061-0.158-0.124-0.235-0.186
						C121.749,106.341,121.752,106.343,121.755,106.346z"/>
					<path style="fill:none;" d="M119.358,102.731c0.019,0.1,0.048,0.2,0.075,0.3c-0.027-0.106-0.058-0.211-0.077-0.317
						C119.357,102.72,119.357,102.726,119.358,102.731z"/>
					<path style="fill:none;" d="M122.587,106.946c0.003,0.002,0.006,0.004,0.009,0.006c0.164,0.107,0.32,0.217,0.497,0.319
						l12.09,7.026l-12.09-7.026C122.913,107.167,122.755,107.055,122.587,106.946z"/>
					<path style="fill:none;" d="M119.555,103.459c0.035,0.098,0.08,0.194,0.123,0.291c-0.044-0.102-0.091-0.203-0.127-0.305
						C119.552,103.449,119.553,103.454,119.555,103.459z"/>
					<path style="fill:#455A64;" d="M119.356,102.715c0.019,0.106,0.05,0.211,0.077,0.317c0.003,0.012,0.006,0.024,0.009,0.036
						c0.033,0.126,0.065,0.252,0.108,0.378c0.036,0.103,0.084,0.204,0.127,0.305c0.004,0.01,0.008,0.019,0.012,0.029
						c0.058,0.133,0.116,0.265,0.186,0.397c0.051,0.096,0.113,0.19,0.171,0.285c0.004,0.006,0.007,0.012,0.01,0.017
						c0.093,0.151,0.193,0.302,0.303,0.45c0.057,0.077,0.12,0.153,0.182,0.229c0.056,0.071,0.108,0.142,0.169,0.212
						c0.027,0.031,0.053,0.062,0.08,0.093c0.116,0.128,0.251,0.251,0.381,0.375c0.061,0.058,0.115,0.118,0.179,0.176
						c0.123,0.111,0.26,0.217,0.394,0.325c0.077,0.062,0.154,0.125,0.235,0.186c0.047,0.037,0.092,0.075,0.142,0.112
						c0.146,0.107,0.308,0.208,0.466,0.311c0.167,0.109,0.326,0.221,0.506,0.325l12.09,7.026l44.287-25.569l-12.09-7.026
						c-5.11-2.97-13.416-2.97-18.559,0l-25.668,14.819c-2.753,1.59-4.026,3.706-3.844,5.786c0,0.004,0.001,0.007,0.001,0.01
						C119.323,102.451,119.333,102.583,119.356,102.715z"/>
					<path style="opacity:0.5;fill:#FFFFFF;" d="M119.356,102.715c0.019,0.106,0.05,0.211,0.077,0.317
						c0.003,0.012,0.006,0.024,0.009,0.036c0.033,0.126,0.065,0.252,0.108,0.378c0.036,0.103,0.084,0.204,0.127,0.305
						c0.004,0.01,0.008,0.019,0.012,0.029c0.058,0.133,0.116,0.265,0.186,0.397c0.051,0.096,0.113,0.19,0.171,0.285
						c0.004,0.006,0.007,0.012,0.01,0.017c0.093,0.151,0.193,0.302,0.303,0.45c0.057,0.077,0.12,0.153,0.182,0.229
						c0.056,0.071,0.108,0.142,0.169,0.212c0.027,0.031,0.053,0.062,0.08,0.093c0.116,0.128,0.251,0.251,0.381,0.375
						c0.061,0.058,0.115,0.118,0.179,0.176c0.123,0.111,0.26,0.217,0.394,0.325c0.077,0.062,0.154,0.125,0.235,0.186
						c0.047,0.037,0.092,0.075,0.142,0.112c0.146,0.107,0.308,0.208,0.466,0.311c0.167,0.109,0.326,0.221,0.506,0.325l12.09,7.026
						l44.287-25.569l-12.09-7.026c-5.11-2.97-13.416-2.97-18.559,0l-25.668,14.819c-2.753,1.59-4.026,3.706-3.844,5.786
						c0,0.004,0.001,0.007,0.001,0.01C119.323,102.451,119.333,102.583,119.356,102.715z"/>
					<path style="fill:#37474F;" d="M123.093,107.272c-0.176-0.103-0.332-0.212-0.497-0.319c-0.003-0.002-0.006-0.004-0.009-0.006
						c-0.158-0.103-0.319-0.204-0.466-0.311c-0.05-0.036-0.095-0.075-0.142-0.112c-0.075-0.059-0.151-0.118-0.225-0.178
						c-0.003-0.003-0.007-0.006-0.01-0.008c-0.134-0.108-0.271-0.214-0.394-0.325c-0.064-0.058-0.117-0.118-0.179-0.176
						c-0.128-0.121-0.259-0.242-0.373-0.367c-0.003-0.003-0.005-0.006-0.007-0.009c-0.028-0.031-0.053-0.062-0.08-0.093
						c-0.061-0.07-0.113-0.141-0.169-0.212c-0.058-0.073-0.121-0.146-0.176-0.22c-0.002-0.003-0.004-0.006-0.006-0.008
						c-0.111-0.148-0.21-0.299-0.303-0.45c-0.004-0.006-0.007-0.012-0.01-0.017c-0.057-0.091-0.116-0.182-0.165-0.274
						c-0.002-0.004-0.003-0.008-0.005-0.012c-0.07-0.131-0.128-0.264-0.186-0.397c-0.004-0.009-0.008-0.019-0.012-0.029
						c-0.043-0.097-0.088-0.194-0.123-0.291c-0.002-0.005-0.002-0.009-0.004-0.014c-0.044-0.125-0.075-0.252-0.108-0.378
						c-0.003-0.012-0.006-0.024-0.009-0.036c-0.027-0.1-0.057-0.2-0.075-0.3c-0.001-0.006-0.001-0.011-0.002-0.017
						c-0.023-0.132-0.033-0.264-0.045-0.396c0-0.003-0.001-0.007-0.001-0.01c-0.012-0.125-0.031-0.249-0.032-0.374l0.117,41.356
						c0,0.038,0.001,0.077,0.002,0.115c0.003,0.09,0.023,0.179,0.031,0.269c0.012,0.138,0.022,0.276,0.047,0.413
						c0.004,0.023,0.003,0.047,0.008,0.07c0.018,0.089,0.053,0.176,0.076,0.265c0.035,0.131,0.066,0.262,0.113,0.392
						c0.009,0.027,0.013,0.054,0.023,0.081c0.03,0.08,0.077,0.158,0.112,0.238c0.059,0.137,0.119,0.274,0.192,0.409
						c0.018,0.033,0.028,0.066,0.046,0.099c0.037,0.065,0.09,0.127,0.129,0.192c0.095,0.154,0.196,0.307,0.309,0.458
						c0.033,0.044,0.056,0.09,0.09,0.134c0.08,0.101,0.169,0.2,0.257,0.299c0.03,0.034,0.056,0.068,0.087,0.101
						c0.147,0.161,0.302,0.32,0.471,0.475c0.025,0.023,0.056,0.045,0.082,0.068c0.126,0.114,0.266,0.223,0.404,0.333
						c0.121,0.097,0.237,0.195,0.366,0.289c0.149,0.109,0.314,0.212,0.475,0.317c0.114,0.074,0.216,0.152,0.336,0.224
						c0.053,0.032,0.106,0.063,0.16,0.095l12.09,7.026l-0.117-41.356L123.093,107.272z"/>
					<path style="opacity:0.3;fill:#FFFFFF;" d="M123.093,107.272c-0.176-0.103-0.332-0.212-0.497-0.319
						c-0.003-0.002-0.006-0.004-0.009-0.006c-0.158-0.103-0.319-0.204-0.466-0.311c-0.05-0.036-0.095-0.075-0.142-0.112
						c-0.075-0.059-0.151-0.118-0.225-0.178c-0.003-0.003-0.007-0.006-0.01-0.008c-0.134-0.108-0.271-0.214-0.394-0.325
						c-0.064-0.058-0.117-0.118-0.179-0.176c-0.128-0.121-0.259-0.242-0.373-0.367c-0.003-0.003-0.005-0.006-0.007-0.009
						c-0.028-0.031-0.053-0.062-0.08-0.093c-0.061-0.07-0.113-0.141-0.169-0.212c-0.058-0.073-0.121-0.146-0.176-0.22
						c-0.002-0.003-0.004-0.006-0.006-0.008c-0.111-0.148-0.21-0.299-0.303-0.45c-0.004-0.006-0.007-0.012-0.01-0.017
						c-0.057-0.091-0.116-0.182-0.165-0.274c-0.002-0.004-0.003-0.008-0.005-0.012c-0.07-0.131-0.128-0.264-0.186-0.397
						c-0.004-0.009-0.008-0.019-0.012-0.029c-0.043-0.097-0.088-0.194-0.123-0.291c-0.002-0.005-0.002-0.009-0.004-0.014
						c-0.044-0.125-0.075-0.252-0.108-0.378c-0.003-0.012-0.006-0.024-0.009-0.036c-0.027-0.1-0.057-0.2-0.075-0.3
						c-0.001-0.006-0.001-0.011-0.002-0.017c-0.023-0.132-0.033-0.264-0.045-0.396c0-0.003-0.001-0.007-0.001-0.01
						c-0.012-0.125-0.031-0.249-0.032-0.374l0.117,41.356c0,0.038,0.001,0.077,0.002,0.115c0.003,0.09,0.023,0.179,0.031,0.269
						c0.012,0.138,0.022,0.276,0.047,0.413c0.004,0.023,0.003,0.047,0.008,0.07c0.018,0.089,0.053,0.176,0.076,0.265
						c0.035,0.131,0.066,0.262,0.113,0.392c0.009,0.027,0.013,0.054,0.023,0.081c0.03,0.08,0.077,0.158,0.112,0.238
						c0.059,0.137,0.119,0.274,0.192,0.409c0.018,0.033,0.028,0.066,0.046,0.099c0.037,0.065,0.09,0.127,0.129,0.192
						c0.095,0.154,0.196,0.307,0.309,0.458c0.033,0.044,0.056,0.09,0.09,0.134c0.08,0.101,0.169,0.2,0.257,0.299
						c0.03,0.034,0.056,0.068,0.087,0.101c0.147,0.161,0.302,0.32,0.471,0.475c0.025,0.023,0.056,0.045,0.082,0.068
						c0.126,0.114,0.266,0.223,0.404,0.333c0.121,0.097,0.237,0.195,0.366,0.289c0.149,0.109,0.314,0.212,0.475,0.317
						c0.114,0.074,0.216,0.152,0.336,0.224c0.053,0.032,0.106,0.063,0.16,0.095l12.09,7.026l-0.117-41.356L123.093,107.272z"/>
					<polygon style="fill:#263238;" points="179.471,88.729 135.184,114.298 135.301,155.654 179.588,130.085 					"/>
				</g>
				<g>
					<g>
						<g>
							<path style="fill:#FFA8A7;" d="M89.05,278.921v-0.005c-0.013-0.007-0.028-0.012-0.041-0.019L89.05,278.921z"/>
							<path style="fill:#BA68C8;" d="M87.37,275.392L87.098,154.29c-0.01-3.437,2.407-7.628,5.403-9.358l150.531-86.687
								c1.487-0.858,2.837-0.945,3.819-0.395l-5.668-3.284l0.001,0.005c-0.992-0.629-2.389-0.576-3.938,0.318L86.715,141.576
								c-2.996,1.73-5.413,5.921-5.403,9.358l0.272,121.101c0.005,1.622,0.553,2.781,1.441,3.379l0,0l0.006,0.004
								c0.097,0.065,0.198,0.123,0.303,0.175l5.59,3.256C87.968,278.275,87.375,277.083,87.37,275.392z"/>
							<path style="opacity:0.3;fill:#FFFFFF;" d="M241.183,54.566l0.001,0.005c-0.992-0.629-2.389-0.576-3.938,0.318
								L86.715,141.576c-1.665,0.961-3.149,2.684-4.139,4.614l5.791,3.347c0.99-1.926,2.472-3.645,4.134-4.605l150.531-86.687
								c1.487-0.858,2.837-0.945,3.819-0.395L241.183,54.566z"/>
							<path style="opacity:0.2;" d="M81.312,150.934l0.272,121.101c0.005,1.622,0.553,2.781,1.441,3.379l0,0l0.006,0.004
								c0.097,0.065,0.198,0.123,0.303,0.175l5.59,3.256c-0.956-0.573-1.549-1.765-1.554-3.456L87.098,154.29
								c-0.004-1.53,0.474-3.208,1.269-4.753l-5.791-3.347C81.784,147.732,81.308,149.407,81.312,150.934z"/>
							<path style="fill:#FFA8A7;" d="M246.915,57.888l-0.028-0.016c0.009,0.005,0.017,0.013,0.026,0.018L246.915,57.888z"/>
							<path style="fill:#BA68C8;" d="M248.47,61.344c-0.005-1.691-0.599-2.883-1.556-3.455c-0.009-0.006-0.017-0.013-0.026-0.018
								c-0.012-0.007-0.024-0.014-0.036-0.021c-0.983-0.551-2.332-0.464-3.819,0.395L92.501,144.932
								c-2.996,1.73-5.413,5.921-5.403,9.358l0.272,121.102c0.005,1.691,0.598,2.883,1.554,3.456
								c0.028,0.017,0.056,0.034,0.085,0.049c0.013,0.007,0.028,0.012,0.041,0.019c0.977,0.514,2.299,0.417,3.758-0.425
								l150.531-86.687c2.991-1.727,5.413-5.921,5.403-9.358L248.47,61.344z M240.665,187.171L92.711,272.371l-0.264-118.096
								c-0.005-1.521,1.398-3.942,2.728-4.71l147.954-85.199l0.264,118.095C243.398,183.982,241.995,186.403,240.665,187.171z"/>
							<path style="fill:#BA68C8;" d="M243.129,64.366l-3.829,2.208l0.255,114.018c0.004,1.521-1.398,3.942-2.728,4.71
								L92.702,268.293l0.009,4.078l147.954-85.199c1.331-0.768,2.733-3.189,2.728-4.71L243.129,64.366z"/>
							<path style="opacity:0.3;" d="M243.129,64.366l-3.829,2.208l0.255,114.018c0.004,1.521-1.398,3.942-2.728,4.71
								L92.702,268.293l0.009,4.078l147.954-85.199c1.331-0.768,2.733-3.189,2.728-4.71L243.129,64.366z"/>
							<path style="fill:#455A64;" d="M239.555,180.592L239.3,66.574L95.175,149.565c-1.33,0.768-2.732,3.189-2.728,4.71
								l0.255,114.018l144.125-82.991C238.157,184.534,239.559,182.113,239.555,180.592z"/>
						</g>
					</g>
				</g>
				<g style="opacity:0.5;">
					<g>
						<polygon style="fill:#FFFFFF;" points="195.335,187.441 195.347,191.729 151.45,217.073 151.438,212.785 						"/>
					</g>
					<g>
						<polygon style="fill:#FFFFFF;" points="155.662,174.518 158.305,176.031 152.171,186.656 158.345,190.175 155.719,194.724 
							149.545,191.205 143.41,201.83 140.761,200.327 146.895,189.702 140.721,186.184 143.353,181.624 149.527,185.143 						"/>
					</g>
					<g>
						<polygon style="fill:#FFFFFF;" points="203.217,147.062 205.861,148.575 199.727,159.2 205.901,162.719 203.274,167.268 
							197.1,163.749 190.966,174.374 188.316,172.871 194.451,162.246 188.276,158.727 190.908,154.168 197.083,157.687 						"/>
					</g>
				</g>
				<g>
					<g>
						<polygon style="fill:#FFFFFF;" points="119.222,156.764 119.228,158.852 111.007,163.598 111.022,168.743 118.35,164.513 
							118.356,166.546 111.028,170.777 111.043,176.211 119.561,171.293 119.567,173.362 108.966,179.482 108.919,162.713 						"/>
					</g>
					<g>
						<path style="fill:#FFFFFF;" d="M131.514,160.823l3.476,3.634l-2.27,1.311l-3.178-3.32c-0.282,0.181-0.595,0.397-0.908,0.578
							l-3.617,2.088l0.014,5.092l-2.083,1.202l-0.048-16.769l5.7-3.291c3.789-2.188,6.097-1.322,6.108,2.331
							C134.716,156.271,133.547,158.82,131.514,160.823z M128.566,161.012c2.662-1.537,4.067-3.736,4.06-6.129
							c-0.007-2.393-1.42-2.947-4.082-1.41l-3.554,2.052l0.021,7.539L128.566,161.012"/>
					</g>
					<g>
						<path style="fill:#FFFFFF;" d="M146.687,152.063l3.476,3.634l-2.27,1.311l-3.162-3.329c-0.297,0.19-0.61,0.407-0.924,0.587
							l-3.601,2.079l0.014,5.092l-2.098,1.211l-0.048-16.769l5.7-3.291c3.805-2.197,6.097-1.322,6.108,2.331
							C149.889,147.511,148.736,150.051,146.687,152.063z M143.739,152.251c2.678-1.546,4.067-3.736,4.06-6.129
							c-0.007-2.393-1.404-2.956-4.082-1.41l-3.539,2.043l0.021,7.539L143.739,152.251"/>
					</g>
					<g>
						<path style="fill:#FFFFFF;" d="M159.854,133.107c4.447-2.568,7.746-0.814,7.76,4.117c0.014,4.948-3.264,10.481-7.711,13.048
							c-4.494,2.594-7.793,0.823-7.807-4.089C152.083,141.27,155.361,135.701,159.854,133.107z M159.897,148.131
							c3.226-1.862,5.645-5.98,5.634-9.705c-0.01-3.725-2.445-5.04-5.671-3.178c-3.273,1.89-5.692,6.008-5.681,9.732
							C154.19,148.704,156.625,150.02,159.897,148.131"/>
					</g>
					<g>
						<path style="fill:#FFFFFF;" d="M179.397,133.178l3.492,3.625l-2.286,1.32l-3.162-3.329c-0.282,0.181-0.61,0.407-0.908,0.578
							l-3.617,2.088l0.014,5.092l-2.082,1.202l-0.048-16.769l5.7-3.291c3.789-2.188,6.097-1.322,6.108,2.331
							C182.615,128.617,181.446,131.166,179.397,133.178z M176.465,133.357c2.662-1.537,4.052-3.727,4.045-6.12
							c-0.007-2.393-1.404-2.956-4.066-1.419l-3.555,2.052l0.021,7.539L176.465,133.357"/>
					</g>
					<g>
						<polygon style="fill:#FFFFFF;" points="199.909,110.179 192.783,124.909 198.405,121.663 198.394,118.011 200.352,116.881 
							200.362,120.533 203.133,118.933 203.139,120.984 200.368,122.584 200.379,126.704 198.36,127.871 198.348,123.751 
							190.221,128.442 190.216,126.769 197.654,111.481 						"/>
					</g>
					<g>
						<path style="fill:#FFFFFF;" d="M208.943,104.766c3.038-1.754,5-1.085,5.008,1.794c0.005,1.619-0.398,3.33-2.381,6.655
							l-4.449,7.525l7.485-4.321l0.006,2.069l-10.491,6.057l-0.005-1.619l5.931-10.039c1.53-2.613,1.824-3.829,1.821-4.89
							c-0.005-1.727-1.073-2.156-3.108-0.981c-1.566,0.904-2.848,2.221-3.737,3.978l-1.429-0.599
							C204.718,108.142,206.657,106.085,208.943,104.766z"/>
					</g>
					<g>
						<path style="fill:#FFFFFF;" d="M221.032,97.786c3.915-2.26,6.131-0.512,6.146,4.832c0.016,5.739-2.794,10.425-6.88,12.785
							c-1.378,0.796-2.694,1.249-3.635,1.126l0.793-2.332c0.769,0.133,1.756-0.239,2.821-0.854c2.959-1.709,4.832-4.917,4.82-9.109
							l-0.002-0.612c-0.857,1.973-2.389,3.596-4.206,4.645c-2.897,1.673-5.001,0.887-5.009-2.208
							C215.87,102.839,218.119,99.468,221.032,97.786z M221.243,106.116c1.989-1.148,3.363-3.365,3.357-5.2
							c-0.005-1.727-1.215-2.543-3.485-1.232c-1.895,1.094-3.206,3.131-3.201,5.11C217.92,106.755,219.192,107.301,221.243,106.116"
							/>
					</g>
				</g>
			</g>
		</g>
		<g>
			<path style="fill:#BA68C8;" d="M145.658,79.027l-4.279-8.185c-0.007-0.04-0.013-0.077-0.02-0.117l1.395-9.257
				c0.243-1.611-0.512-3.177-1.925-3.991l-19.265-11.081c-0.894-0.514-2.035-0.206-2.549,0.688
				c-0.514,0.894-0.206,2.035,0.688,2.549l19.265,11.081c0.035,0.072,0.061,0.126,0.096,0.198l-1.395,9.258
				c-0.124,0.824,0.017,1.665,0.403,2.404l4.278,8.183c0.003,0.058,0.005,0.107,0.007,0.165l-6.132,14.696
				c-0.202,0.481-0.304,0.991-0.304,1.515v2.807c-0.036,0.301,0.135,0.609,0.532,0.84c0.729,0.424,1.915,0.424,2.649,0
				c0.367-0.212,0.551-0.49,0.553-0.767l0.015-2.954l6.133-14.698C146.252,81.282,146.199,80.061,145.658,79.027z"/>
			<path style="fill:#455A64;" d="M150.993,69.589c0-0.045-0.001-0.085-0.001-0.13l2.377-6.912c0.227-0.66,0.274-1.37,0.135-2.054
				l-3.446-17.022c-0.205-1.011-1.19-1.665-2.201-1.46c-1.01,0.204-1.664,1.188-1.461,2.199l3.443,17.124l-2.376,6.913
				c-0.294,0.854-0.284,1.783,0.028,2.631l2.409,6.542c0.001,0.042,0.002,0.082,0.003,0.124l-3.737,12.12
				c-0.116,0.375-0.174,0.765-0.174,1.158v2.634c-0.002,0.278,0.18,0.555,0.544,0.767c0.729,0.424,1.915,0.424,2.649,0
				c0.401-0.231,0.576-0.541,0.541-0.844l0.008-2.615l3.738-12.12c0.254-0.823,0.23-1.706-0.068-2.515L150.993,69.589z"/>
			<path style="fill:#BA68C8;" d="M184.561,53.077h-6.469c-1.312,0-2.537,0.655-3.266,1.746l-3.615,5.41
				c-0.04,0.028-0.076,0.053-0.116,0.081l-4.745,1.12c-1.203,0.284-2.186,1.095-2.699,2.252c-0.378,0.853-0.396,1.824-0.155,2.726
				l0.536,2.005c0.014,0.052,0.007,0.103-0.02,0.149c-0.028,0.046-0.068,0.076-0.12,0.09l-1.455,0.361
				c-1.347,0.335-2.418,1.355-2.815,2.685l-4.506,15.066c-0.109,0.366-0.165,0.746-0.165,1.128v2.328h0.006
				c-0.002,0.278,0.18,0.555,0.544,0.767c0.729,0.424,1.915,0.424,2.649,0c0.419-0.242,0.591-0.568,0.534-0.883l0.008-2.269
				l4.506-15.066c0.049-0.047,0.089-0.085,0.139-0.132l1.455-0.361c1.193-0.296,2.164-1.113,2.665-2.265
				c0.369-0.848,0.383-1.81,0.144-2.703l-0.535-2.003c-0.014-0.052-0.007-0.103,0.021-0.149c0.028-0.047,0.069-0.077,0.122-0.09
				l4.745-1.12c0.967-0.228,1.811-0.814,2.362-1.64l3.615-5.41c0.057-0.031,0.104-0.056,0.161-0.086h6.469
				c1.031,0,1.867-0.836,1.867-1.867C186.428,53.913,185.592,53.077,184.561,53.077z"/>
		</g>
		<g style="opacity:0.1;">
			<path style="fill:#FFFFFF;" d="M145.658,79.027l-4.279-8.185c-0.007-0.04-0.013-0.077-0.02-0.117l1.395-9.257
				c0.243-1.611-0.512-3.177-1.925-3.991l-19.265-11.081c-0.894-0.514-2.035-0.206-2.549,0.688
				c-0.514,0.894-0.206,2.035,0.688,2.549l19.265,11.081c0.035,0.072,0.061,0.126,0.096,0.198l-1.395,9.258
				c-0.124,0.824,0.017,1.665,0.403,2.404l4.278,8.183c0.003,0.058,0.005,0.107,0.007,0.165l-6.132,14.696
				c-0.202,0.481-0.304,0.991-0.304,1.515v2.807c-0.036,0.301,0.135,0.609,0.532,0.84c0.729,0.424,1.915,0.424,2.649,0
				c0.367-0.212,0.551-0.49,0.553-0.767l0.015-2.954l6.133-14.698C146.252,81.282,146.199,80.061,145.658,79.027z"/>
			<path style="fill:#FFFFFF;" d="M150.993,69.589c0-0.045-0.001-0.085-0.001-0.13l2.377-6.912c0.227-0.66,0.274-1.37,0.135-2.054
				l-3.446-17.022c-0.205-1.011-1.19-1.665-2.201-1.46c-1.01,0.204-1.664,1.188-1.461,2.199l3.443,17.124l-2.376,6.913
				c-0.294,0.854-0.284,1.783,0.028,2.631l2.409,6.542c0.001,0.042,0.002,0.082,0.003,0.124l-3.737,12.12
				c-0.116,0.375-0.174,0.765-0.174,1.158v2.634c-0.002,0.278,0.18,0.555,0.544,0.767c0.729,0.424,1.915,0.424,2.649,0
				c0.401-0.231,0.576-0.541,0.541-0.844l0.008-2.615l3.738-12.12c0.254-0.823,0.23-1.706-0.068-2.515L150.993,69.589z"/>
			<path style="fill:#FFFFFF;" d="M184.561,53.077h-6.469c-1.312,0-2.537,0.655-3.266,1.746l-3.615,5.41
				c-0.04,0.028-0.076,0.053-0.116,0.081l-4.745,1.12c-1.203,0.284-2.186,1.095-2.699,2.252c-0.378,0.853-0.396,1.824-0.155,2.726
				l0.536,2.005c0.014,0.052,0.007,0.103-0.02,0.149c-0.028,0.046-0.068,0.076-0.12,0.09l-1.455,0.361
				c-1.347,0.335-2.418,1.355-2.815,2.685l-4.506,15.066c-0.109,0.366-0.165,0.746-0.165,1.128v2.328h0.006
				c-0.002,0.278,0.18,0.555,0.544,0.767c0.729,0.424,1.915,0.424,2.649,0c0.419-0.242,0.591-0.568,0.534-0.883l0.008-2.269
				l4.506-15.066c0.049-0.047,0.089-0.085,0.139-0.132l1.455-0.361c1.193-0.296,2.164-1.113,2.665-2.265
				c0.369-0.848,0.383-1.81,0.144-2.703l-0.535-2.003c-0.014-0.052-0.007-0.103,0.021-0.149c0.028-0.047,0.069-0.077,0.122-0.09
				l4.745-1.12c0.967-0.228,1.811-0.814,2.362-1.64l3.615-5.41c0.057-0.031,0.104-0.056,0.161-0.086h6.469
				c1.031,0,1.867-0.836,1.867-1.867C186.428,53.913,185.592,53.077,184.561,53.077z"/>
		</g>
		<g>
			<g>
				<polygon style="fill:#BA68C8;" points="87.385,29.938 98.203,42.362 105.713,37.939 114.516,58.928 104.299,44.046 
					96.314,49.41 				"/>
				<polygon style="fill:#BA68C8;" points="138.728,25.83 133.705,35.875 138.728,36.648 134.607,46.822 143.236,35.103 
					136.41,33.944 				"/>
				<polygon style="fill:#BA68C8;" points="182.773,29.213 180.713,41.156 176.591,39.61 174.445,51.716 177.794,42.444 
					182.43,44.418 				"/>
				<polygon style="fill:#BA68C8;" points="189.384,50.428 197.669,43.167 197.669,46.797 203.637,42.615 195.607,51.248 
					195.824,46.147 				"/>
				<polygon style="fill:#BA68C8;" points="186.428,61.335 193.677,68.257 195.051,64.366 202.864,70.433 194.646,60.13 
					193.162,65.282 				"/>
				<polygon style="fill:#BA68C8;" points="128.885,76.1 117.865,80.221 121.745,83.185 113.228,88.103 127.137,84.342 
					122.973,80.994 				"/>
			</g>
			<g style="opacity:0.5;">
				<polygon style="fill:#FFFFFF;" points="87.385,29.938 98.203,42.362 105.713,37.939 114.516,58.928 104.299,44.046 
					96.314,49.41 				"/>
				<polygon style="fill:#FFFFFF;" points="138.728,25.83 133.705,35.875 138.728,36.648 134.607,46.822 143.236,35.103 
					136.41,33.944 				"/>
				<polygon style="fill:#FFFFFF;" points="182.773,29.213 180.713,41.156 176.591,39.61 174.445,51.716 177.794,42.444 
					182.43,44.418 				"/>
				<polygon style="fill:#FFFFFF;" points="189.384,50.428 197.669,43.167 197.669,46.797 203.637,42.615 195.607,51.248 
					195.824,46.147 				"/>
				<polygon style="fill:#FFFFFF;" points="186.428,61.335 193.677,68.257 195.051,64.366 202.864,70.433 194.646,60.13 
					193.162,65.282 				"/>
				<polygon style="fill:#FFFFFF;" points="128.885,76.1 117.865,80.221 121.745,83.185 113.228,88.103 127.137,84.342 
					122.973,80.994 				"/>
			</g>
		</g>
	</g>
</g>
<g id="Envelopes">
	<g>
		<g>
			<polygon style="fill:#BA68C8;" points="284.393,352.536 223.455,360.69 231.86,381.48 292.798,373.318 			"/>
			<polygon style="opacity:0.2;fill:#FFFFFF;" points="284.393,352.536 260.753,370.565 223.455,360.69 			"/>
			<polygon style="opacity:0.1;fill:#FFFFFF;" points="284.393,352.536 292.798,373.318 231.86,381.48 223.455,360.69 
				260.753,370.565 			"/>
		</g>
		<g>
			<polygon style="fill:#BA68C8;" points="312.885,280.252 299.142,300.02 357.213,313.65 370.956,293.882 			"/>
			<polygon style="opacity:0.3;fill:#FFFFFF;" points="370.956,293.882 333.667,300.73 312.885,280.252 			"/>
			<polygon style="opacity:0.1;fill:#FFFFFF;" points="370.956,293.882 357.213,313.65 299.142,300.02 312.885,280.252 
				333.667,300.73 			"/>
		</g>
		<g>
			<polygon style="fill:#BA68C8;" points="181.117,314.9 167.374,334.668 225.445,348.298 239.188,328.53 			"/>
			<polygon style="opacity:0.3;fill:#FFFFFF;" points="239.188,328.53 201.899,335.378 181.117,314.9 			"/>
			<polygon style="opacity:0.1;fill:#FFFFFF;" points="239.188,328.53 225.445,348.298 167.374,334.668 181.117,314.9 
				201.899,335.378 			"/>
		</g>
		<g>
			<polygon style="fill:#BA68C8;" points="397.039,305.795 346.272,326.908 367.816,344.253 418.584,323.14 			"/>
			<polygon style="opacity:0.5;fill:#FFFFFF;" points="397.039,305.795 387.21,327.724 346.272,326.908 			"/>
			<polygon style="opacity:0.3;fill:#FFFFFF;" points="397.039,305.795 418.584,323.14 367.816,344.253 346.272,326.908 
				387.21,327.724 			"/>
		</g>
		<g>
			<polygon style="fill:#BA68C8;" points="299.785,314.9 279.217,332.56 331.137,352.905 351.704,335.245 			"/>
			<polygon style="opacity:0.2;fill:#FFFFFF;" points="351.704,335.245 312.763,337.429 299.785,314.9 			"/>
			<polygon style="opacity:0.1;fill:#FFFFFF;" points="351.704,335.245 331.137,352.905 279.217,332.56 299.785,314.9 
				312.763,337.429 			"/>
		</g>
		<g>
			<polygon style="fill:#BA68C8;" points="345.821,402.783 309.696,398.552 297.478,434.085 297.478,434.085 297.478,434.085 
				297.478,434.085 297.478,434.085 333.603,438.316 			"/>
			<g>
				<polygon style="opacity:0.5;fill:#FFFFFF;" points="309.696,398.552 328.318,418.533 297.478,434.085 				"/>
				<polygon style="opacity:0.3;fill:#FFFFFF;" points="333.603,438.316 297.478,434.085 328.318,418.533 309.696,398.552 
					345.821,402.783 				"/>
			</g>
		</g>
		<g>
			<polygon style="fill:#BA68C8;" points="282.749,423.275 229.286,442.022 248.436,460.286 301.905,441.535 			"/>
			<polygon style="opacity:0.5;fill:#FFFFFF;" points="282.749,423.275 269.998,444.692 229.286,442.022 			"/>
			<polygon style="opacity:0.3;fill:#FFFFFF;" points="282.749,423.275 301.905,441.535 248.436,460.286 229.286,442.022 
				269.998,444.692 			"/>
		</g>
		<g>
			<polygon style="fill:#BA68C8;" points="330.871,245.302 286.469,270.937 312.427,286.022 356.829,260.387 			"/>
			<polygon style="opacity:0.5;fill:#FFFFFF;" points="286.469,270.937 325.454,268.826 330.871,245.302 			"/>
			<polygon style="opacity:0.3;fill:#FFFFFF;" points="286.469,270.937 312.427,286.022 356.829,260.387 330.871,245.302 
				325.454,268.826 			"/>
		</g>
		<g>
			<polygon style="fill:#BA68C8;" points="272.263,314.442 225.76,336.032 250.276,353.363 296.779,331.773 			"/>
			<polygon style="opacity:0.6;fill:#FFFFFF;" points="225.76,336.032 264.778,337.392 272.263,314.442 			"/>
			<polygon style="opacity:0.4;fill:#FFFFFF;" points="225.76,336.032 250.276,353.363 296.779,331.773 272.263,314.442 
				264.778,337.392 			"/>
		</g>
		<g>
			<polygon style="fill:#BA68C8;" points="354.927,303.739 292.412,305.411 294.23,326.721 356.745,325.049 			"/>
			<polygon style="opacity:0.5;fill:#FFFFFF;" points="354.927,303.739 326.059,318.999 292.412,305.411 			"/>
			<polygon style="opacity:0.3;fill:#FFFFFF;" points="354.927,303.739 356.745,325.049 294.23,326.721 292.412,305.411 
				326.059,318.999 			"/>
		</g>
		<g>
			<polygon style="fill:#BA68C8;" points="259.865,298.83 197.35,300.501 199.168,321.811 261.683,320.14 			"/>
			<polygon style="opacity:0.5;fill:#FFFFFF;" points="259.865,298.83 230.997,314.09 197.35,300.501 			"/>
			<polygon style="opacity:0.3;fill:#FFFFFF;" points="259.865,298.83 261.683,320.14 199.168,321.811 197.35,300.501 
				230.997,314.09 			"/>
		</g>
		<g>
			<path style="fill:#BA68C8;" d="M286.94,396.621l-31.952-10.672v0l-31.125,31.393h0l0,0l0,0l0,0l31.952,10.672L286.94,396.621z
				 M257.027,392.765l4.65,15.543l0,0L257.027,392.765z"/>
			<polygon style="opacity:0.2;fill:#FFFFFF;" points="254.988,385.95 261.677,408.308 223.863,417.343 			"/>
			<polygon style="opacity:0.1;fill:#FFFFFF;" points="255.815,428.015 223.863,417.343 261.677,408.308 254.988,385.95 
				286.94,396.621 			"/>
		</g>
		<g>
			<polygon style="fill:#BA68C8;" points="269.286,276.555 251.824,311.34 287.199,317.356 304.654,282.575 			"/>
			<polygon style="opacity:0.5;fill:#FFFFFF;" points="269.286,276.555 284.87,297.387 251.824,311.34 			"/>
			<polygon style="opacity:0.3;fill:#FFFFFF;" points="287.199,317.356 251.824,311.34 284.87,297.387 269.286,276.555 
				304.654,282.575 			"/>
		</g>
		<g>
			<polygon style="fill:#BA68C8;" points="319.58,342.242 288.17,353.332 320.865,384.307 352.275,373.217 			"/>
			<polygon style="opacity:0.5;fill:#FFFFFF;" points="319.58,342.242 352.275,373.217 315.228,365.827 			"/>
			<polygon style="opacity:0.3;fill:#FFFFFF;" points="319.58,342.242 315.228,365.827 352.275,373.217 320.866,384.307 
				288.17,353.332 			"/>
		</g>
		<g>
			<polygon style="fill:#BA68C8;" points="299.051,367.004 254.649,392.639 280.607,407.725 325.009,382.089 			"/>
			<polygon style="opacity:0.6;fill:#FFFFFF;" points="254.649,392.639 293.634,390.528 299.051,367.004 			"/>
			<polygon style="opacity:0.4;fill:#FFFFFF;" points="254.649,392.639 280.607,407.725 325.009,382.089 299.051,367.004 
				293.634,390.528 			"/>
		</g>
		<g>
			<polygon style="fill:#BA68C8;" points="197.611,382.548 165.608,393.046 196.589,424.606 228.598,414.105 			"/>
			<polygon style="opacity:0.5;fill:#FFFFFF;" points="202.24,401.12 196.589,424.606 165.608,393.046 			"/>
			<polygon style="opacity:0.3;fill:#FFFFFF;" points="197.611,382.548 228.598,414.105 196.589,424.606 165.608,393.046 
				196.589,424.606 202.24,401.12 165.608,393.046 			"/>
		</g>
		<g>
			<polygon style="fill:#BA68C8;" points="229.252,366.645 193.021,370.416 204.283,406.098 240.514,402.326 			"/>
			<polygon style="opacity:0.6;fill:#FFFFFF;" points="229.252,366.645 240.514,402.326 210.52,387.704 			"/>
			<polygon style="opacity:0.4;fill:#FFFFFF;" points="229.252,366.645 210.52,387.704 240.514,402.326 204.283,406.098 
				193.022,370.417 			"/>
		</g>
		<g>
			<polygon style="fill:#BA68C8;" points="190.906,402.953 158.954,392.281 165.643,414.639 165.643,414.639 158.954,392.281 
				127.829,423.674 127.829,423.674 127.829,423.674 127.829,423.674 127.829,423.674 159.781,434.346 			"/>
			<polygon style="opacity:0.6;fill:#FFFFFF;" points="158.954,392.281 165.643,414.639 127.829,423.674 			"/>
			<polygon style="opacity:0.4;fill:#FFFFFF;" points="159.781,434.346 127.829,423.674 165.643,414.639 158.954,392.281 
				190.906,402.953 			"/>
		</g>
		<g>
			<polygon style="fill:#BA68C8;" points="122.972,341.279 97.014,356.364 141.416,382 167.374,366.914 			"/>
			<polygon style="opacity:0.2;fill:#FFFFFF;" points="167.374,366.914 128.389,364.803 122.972,341.279 			"/>
			<polygon style="opacity:0.1;fill:#FFFFFF;" points="167.374,366.914 141.416,382 97.014,356.364 122.972,341.279 
				128.389,364.803 			"/>
		</g>
		<g>
			<polygon style="fill:#BA68C8;" points="126.041,360.356 90.362,365.582 105.89,400.728 141.575,395.506 			"/>
			<polygon style="opacity:0.5;fill:#FFFFFF;" points="126.041,360.356 141.575,395.506 109.89,382.126 			"/>
			<polygon style="opacity:0.3;fill:#FFFFFF;" points="126.041,360.356 109.89,382.126 141.575,395.506 105.89,400.728 
				90.362,365.582 			"/>
		</g>
		<g>
			<polygon style="fill:#BA68C8;" points="226.531,344.04 164.215,347.333 167.678,368.578 229.994,365.285 			"/>
			<polygon style="opacity:0.6;fill:#FFFFFF;" points="226.531,344.04 198.873,360.036 164.215,347.333 			"/>
			<polygon style="opacity:0.3;fill:#FFFFFF;" points="226.531,344.04 229.994,365.285 167.678,368.578 164.215,347.333 
				198.873,360.036 			"/>
		</g>
		<polygon style="opacity:0.1;" points="223.571,283.621 214.374,288.928 197.026,298.939 242.206,316.632 262.774,298.971 		"/>
		<g>
			<polygon style="fill:#BA68C8;" points="226.681,281.846 217.484,287.153 200.135,297.164 242.206,313.65 262.774,295.99 			"/>
			<polygon style="opacity:0.6;fill:#FFFFFF;" points="223.833,298.174 262.774,295.99 226.681,281.846 217.484,287.153 			"/>
			<polygon style="opacity:0.4;fill:#FFFFFF;" points="262.774,295.99 223.833,298.174 217.484,287.153 200.135,297.164 
				242.206,313.65 			"/>
		</g>
	</g>
</g>
<g id="Character">
	<g>
		<g>
			<path style="fill:#BA68C8;" d="M416.246,220.283l1.334-22.531c0.369-6.227-2.406-12.224-7.391-15.974l-8.09-6.085l1.18,48.34
				L416.246,220.283z"/>
			<path style="opacity:0.1;" d="M416.246,220.283l1.334-22.531c0.369-6.227-2.406-12.224-7.391-15.974l-8.09-6.085l1.18,48.34
				L416.246,220.283z"/>
			<path style="opacity:0.1;" d="M403.668,195.631c3.88,1.326,7.91,2.214,11.988,2.643c-1.864,1.375-4.441,2.145-6.705,1.657
				C406.686,199.443,404.801,197.651,403.668,195.631z"/>
		</g>
		<g>
			<g>
				<g>
					<path style="fill:#263238;" d="M388.699,394.427c-0.659,2.075-2.935,3.263-5.105,3.435c-2.17,0.173-4.315-0.438-6.457-0.826
						c-4.797-0.869-9.422-0.008-14.206-0.12c-1.57-0.037-3.154-0.109-4.672-0.508c-1.519-0.399-2.985-1.151-3.995-2.354
						c-0.596-0.71-1.005-1.592-1.15-2.504c-0.235,1.37,0.249,2.833,1.15,3.907c1.01,1.203,2.476,1.955,3.995,2.354
						c1.519,0.399,3.103,0.471,4.672,0.508c4.784,0.113,9.409-0.749,14.206,0.12c2.142,0.388,4.287,0.998,6.457,0.826
						c2.171-0.173,4.446-1.36,5.105-3.435c0.227-0.714,0.241-1.461,0.167-2.211C388.832,393.892,388.783,394.162,388.699,394.427z"
						/>
					<path style="fill:#37474F;" d="M388.575,390.452c-0.294-1.453-0.588-2.906-0.882-4.358c-0.155-0.768-0.319-1.556-0.738-2.218
						c-0.42-0.662-1.16-1.181-1.94-1.109c-2.627-0.35-6.32-1.3-8.503,0.202c-3.417,2.352-7.603,3.568-11.748,3.412
						c-2.17-0.082-4.343-0.526-6.499-0.262c-2.156,0.264-4.399,1.465-5.039,3.54c-0.19,0.614-0.212,1.26-0.112,1.892
						c0.145,0.912,0.554,1.794,1.15,2.504c1.01,1.203,2.476,1.955,3.995,2.354c1.519,0.399,3.103,0.471,4.672,0.508
						c4.784,0.113,9.409-0.749,14.206,0.12c2.142,0.388,4.287,0.998,6.457,0.826c2.171-0.172,4.446-1.36,5.105-3.435
						c0.084-0.265,0.134-0.535,0.167-0.808C388.989,392.578,388.786,391.494,388.575,390.452z"/>
				</g>
				<path style="fill:#FFA8A7;" d="M375.874,378.404l-0.188,5.677c-0.04,1.207,0.88,2.242,2.085,2.322
					c1.95,0.129,3.849,0.121,5.722-0.055c1.594-0.15,2.84-1.443,2.926-3.042l0.225-4.193L375.874,378.404z"/>
			</g>
			<g>
				<g>
					<path style="fill:#263238;" d="M412.945,375.383c-0.059,0.844-0.261,1.675-0.76,2.345c-0.627,0.841-1.648,1.315-2.68,1.508
						c-2.492,0.467-5.209-0.652-6.65-2.738c-0.714-1.033-1.12-2.25-1.796-3.309c-0.938-1.469-2.345-2.565-3.729-3.626
						c-1.383-1.061-2.797-2.145-3.757-3.6c-0.928-1.408-1.354-3.252-0.718-4.803c-0.133,0.19-0.253,0.389-0.352,0.604
						c-0.748,1.63-0.305,3.614,0.674,5.114c0.979,1.5,2.422,2.618,3.834,3.711c1.411,1.093,2.848,2.223,3.805,3.738
						c0.689,1.092,1.104,2.346,1.832,3.411c1.47,2.15,4.244,3.303,6.786,2.822c1.053-0.199,2.095-0.687,2.734-1.555
						c0.675-0.915,0.817-2.121,0.794-3.262C412.961,375.624,412.951,375.504,412.945,375.383z"/>
					<path style="fill:#37474F;" d="M411.223,368.256c-1.726-3.025-5.285-5.227-8.031-7.369c-1.558-1.216-3.352-2.254-5.322-2.417
						c-1.97-0.163-4.126,0.74-4.957,2.533c-0.024,0.051-0.036,0.106-0.057,0.158c-0.636,1.551-0.21,3.396,0.718,4.803
						c0.959,1.455,2.374,2.539,3.757,3.6c1.383,1.06,2.791,2.156,3.729,3.626c0.676,1.059,1.082,2.276,1.796,3.309
						c1.441,2.086,4.159,3.204,6.65,2.738c1.032-0.193,2.053-0.667,2.68-1.508c0.499-0.67,0.701-1.502,0.76-2.345
						c0.019-0.273,0.024-0.548,0.019-0.819C412.92,372.36,412.315,370.17,411.223,368.256z"/>
				</g>
				<path style="fill:#FFA8A7;" d="M403.738,365.633v5.16c4.709,1.967,8.03-0.355,8.03-0.355l0.484-4.644L403.738,365.633z"/>
			</g>
			<path style="fill:#455A64;" d="M413.607,272.011c1.548,4.644-0.355,26.703-1.258,47.859c3.354,7.998,3.447,30.905,1.512,47.03
				c0,0-6.558,1.978-12.621-0.086l-5.403-44.622l-1.056-25.155c0,0-1.911,22.317-4.104,36.636
				c2.064,10.965,2.286,13.269-2.809,46.997c0,0-8.254,2.49-14.446-0.547c-2.882-47.386,0.469-90.26,1.015-105.789L413.607,272.011z
				"/>
			<path style="opacity:0.3;" d="M395.424,312.356l-0.862-20.515c5.302,0,10.223-3.963,13.964-7.72
				c-3.595,6.402-10.561,9.241-10.561,9.241L395.424,312.356z"/>
		</g>
		<path style="fill:#BA68C8;" d="M373.788,230.729l-0.16,44.862c23.656,9.912,38.987,0.958,41.069-3.701
			c-1.09-16.355,2.775-35.485,2.478-43.613c-0.297-8.128-1.294-17.284-13.896-15.448l-13.402,1.307l-6.799,1.652L373.788,230.729z"
			/>
		<g>
			<path style="fill:#455A64;" d="M403.278,206.405c0.801,0.107,2.069-0.293,2.618-0.886c0.549-0.592,0.788-1.457,0.621-2.248
				c0.793-0.144,1.496-0.714,1.801-1.461c0.304-0.747,0.047-1.791-0.419-2.449c1.148-0.29,2.152-1.109,2.665-2.176
				c0.514-1.067,0.609-2.448,0.119-3.527c1.263-0.322,2.32-1.349,2.678-2.602c0.358-1.253,0.141-2.88-0.76-3.82
				c1.102-1.434,1.342-3.483,0.601-5.133c-0.741-1.65-2.603-2.846-4.407-2.975c0.278-1.738-0.4-3.598-1.73-4.751
				c-1.33-1.152-3.193-1.476-4.873-0.953c-0.576-1.469-1.973-2.584-3.534-2.82c-1.56-0.236-3.283,0.249-4.268,1.482
				c-0.768-0.882-1.999-1.337-3.156-1.164c-1.157,0.173-2.381,0.813-2.857,1.882c-1.488-0.664-3.312-0.511-4.668,0.392
				c-1.356,0.903-2.137,2.563-2.098,4.192c-1.2,0.324-2.089,1.55-2.025,2.791c0.064,1.241,1.107,2.491,2.333,2.69
				c1.161,6.357,3.329,12.664,6.285,18.411c1.328,2.583,2.957,5.204,5.533,6.545C396.522,209.278,400.894,208.449,403.278,206.405z"
				/>
			<polygon style="fill:#F28F8F;" points="380.963,191.273 378.188,196.097 381.227,197.22 			"/>
			<path style="fill:#FFA8A7;" d="M381.919,182.871c-1.839,6.65-2.12,13.729-0.797,20.502c0.225,1.153,0.519,2.345,1.275,3.245
				c0.855,1.017,2.201,1.516,3.525,1.622c1.324,0.106,2.648-0.138,3.954-0.381v6.277c4.765,1.123,9.667,1.568,13.402-1.307v-6.424
				c-2.678,0.786-5.592,1.113-8.319,0.52c-3.292-1.775-3.952-7.789-3.49-9.375c0.486,0.8,1.662,1.112,2.574,0.904
				c0.912-0.208,1.668-0.887,2.136-1.697c0.468-0.81,0.679-1.744,0.797-2.672c0.145-1.131,0.14-2.359-0.488-3.31
				c-0.771-1.169-2.374-1.616-3.727-1.257c-1.353,0.36-2.449,1.404-3.138,2.624c-0.217,0.386-0.399,0.788-0.552,1.202
				c-0.279,0.752-1.371,0.614-1.445-0.184c-0.165-1.794,0.152-3.634,0.944-5.253c-1.059,0.015-2.055-0.8-2.69-1.648
				c-0.634-0.848-0.833-2.004-0.52-3.016C383.771,183.426,381.919,182.871,381.919,182.871z"/>
		</g>
		<g>
			<path style="fill:#FFA8A7;" d="M385.725,191.838c4.34,0.203,8.748-1.708,11.723-4.884c0.437-0.467,0.524-1.155,0.2-1.706
				c-0.005-0.008-0.01-0.016-0.015-0.025c-0.42-0.708-1.391-0.917-2.033-0.401c-1.251,1.005-2.853,1.644-4.417,1.877
				c0.11-2.331,3.337-6.871,5.001-8.507c0.463-0.455,1.006-0.921,1.094-1.565c0.056-0.41-0.103-0.844-0.41-1.122
				c-0.308-0.277-0.719-0.437-1.122-0.339c0.419-0.13,0.684-0.602,0.626-1.036c-0.058-0.435-0.401-0.804-0.816-0.946
				c-0.415-0.142-0.876-0.199-1.264,0.007c-0.054-0.367-0.356-0.668-0.707-0.788c-0.351-0.12-0.741-0.08-1.093,0.04
				c-0.351,0.12-0.739,0.298-1.056,0.491c-0.345-0.573-1.236-0.824-1.832-0.522c-4.213,2.136-9.266,8.996-9.304,13.719
				C380.277,189.048,382.81,191.701,385.725,191.838z"/>
			<path style="fill:#F28F8F;" d="M395.746,175.166c-3.049,1.387-4.809,4.156-5.367,5.444
				C390.766,177.036,394.32,175.325,395.746,175.166z"/>
			<path style="fill:#F28F8F;" d="M394.293,173.191c-3.559,1.688-5.137,3.459-6.103,5.005
				C389.446,175.169,392.056,173.563,394.293,173.191z"/>
			<path style="fill:#F28F8F;" d="M391.437,172.934c-2.861,1.334-4.148,2.814-5.05,4.102
				C387.675,173.333,391.437,172.934,391.437,172.934z"/>
			<path style="fill:#F28F8F;" d="M392.792,189.476c-2.307,1.116-4.954,1.515-7.487,1.128c-0.337-1.448-1.222-2.766-2.358-3.726
				c-0.755-0.638-1.654-1.09-2.604-1.362c-0.019,0.207-0.042,0.415-0.044,0.615c-0.024,2.918,2.509,5.571,5.424,5.707
				c4.34,0.203,8.748-1.708,11.723-4.884c0.42-0.448,0.507-1.099,0.226-1.638C396.429,187.082,394.738,188.534,392.792,189.476z"/>
		</g>
		<path style="opacity:0.2;" d="M386.701,228.953c-3.985,0.066-8.042,0.272-12.068,0.418l-0.845,1.358l-0.03,8.404
			C379.316,237.956,384.285,234.109,386.701,228.953z"/>
		<path style="fill:#BA68C8;" d="M387.087,214.814l-26.715-7.575l23.526-11.196c3.421-6.268-2.846-11.591-8.17-10.818
			l-27.204,13.436c-4.081,1.873-6.697,5.952-6.697,10.443l0,0c0,4.548,2.682,8.667,6.84,10.508l31.04,13.737
			C388.963,236.439,395.516,217.204,387.087,214.814z"/>
		<path style="opacity:0.2;" d="M360.372,207.239l-7.634-2.165l0,0c3.949-0.807,7.999-1,12.007-0.57l1.121,0.12L360.372,207.239z"/>
	</g>
</g>
<g id="Speech_bubble">
	<g>
		<g>
			<g>
				<g>
					<path style="fill:#BA68C8;" d="M273.68,88.009l64.431,37.178c1.147,0.658,2.059,1.609,2.685,2.723
						c0.597,1.061,0.936,2.269,0.936,3.528v39.541c0,4.837-4.114,8.125-9.524,5.034l-5.14-2.937l0,0l-1.047-0.598l-0.23-0.131l0,0
						l-34.438-19.956l0,0l-23.569-13.468c-2.245-1.283-3.632-3.671-3.632-6.258V93.04C264.152,87.842,270.445,86.153,273.68,88.009z
						"/>
					<path style="fill:none;" d="M333.055,128.733c0.002,0.001,0.003,0.003,0.005,0.004
						C333.058,128.736,333.057,128.734,333.055,128.733z"/>
					<path style="opacity:0.4;fill:#FFFFFF;" d="M334.99,131.155c-0.468-0.926-1.113-1.758-1.93-2.418
						c-0.002-0.001-0.003-0.003-0.005-0.004c-0.273-0.22-0.564-0.42-0.875-0.598l-64.43-37.178
						c-1.602-0.919-3.598,0.238-3.598,2.084c0-5.199,6.293-6.887,9.527-5.032l64.431,37.178c1.147,0.658,2.059,1.609,2.685,2.723
						L334.99,131.155z"/>
					<path style="opacity:0.2;fill:#FFFFFF;" d="M335.801,173.928v-39.541c0-0.288-0.02-0.572-0.057-0.852
						c-0.111-0.837-0.38-1.637-0.755-2.38l5.806-3.245c0.597,1.061,0.936,2.269,0.936,3.528v39.541c0,4.837-4.114,8.125-9.524,5.034
						C333.809,176.929,335.801,175.772,335.801,173.928z"/>
					<polygon style="fill:none;" points="326.021,172.478 325.791,172.347 325.791,172.347 					"/>
					<polygon style="fill:#BA68C8;" points="327.068,173.077 326.021,172.478 327.068,173.077 					"/>
					<polygon style="fill:#BA68C8;" points="259.377,114.737 264.152,111.967 264.152,113.369 					"/>
					<polygon style="opacity:0.4;fill:#FFFFFF;" points="259.377,114.737 264.152,111.967 264.152,113.369 					"/>
					<path style="fill:#BA68C8;" d="M264.995,113.134l-5.348,1.49c-0.879,0.245-1.148,1.358-0.479,1.978l5.564,5.152
						L264.995,113.134z"/>
				</g>
			</g>
		</g>
		<g>
			<g>
				<polygon style="fill:#FFFFFF;" points="276.722,109.381 276.717,111.244 274.505,109.967 274.487,116.422 272.439,115.24 
					272.457,108.785 270.238,107.503 270.243,105.64 				"/>
			</g>
			<g>
				<path style="fill:#FFFFFF;" d="M277.086,128.863l1.56,3.517l-2.196-1.268l-1.305-2.968l-1.117-0.645l-0.006,2.211l-2.048-1.183
					l0.024-8.318l3.313,1.913c1.971,1.138,3.209,3.031,3.204,4.931C278.51,128.283,277.988,128.883,277.086,128.863z
					 M275.174,126.339c0.846,0.488,1.274,0.289,1.276-0.478c0.002-0.767-0.423-1.468-1.269-1.956l-1.141-0.659l-0.007,2.434
					L275.174,126.339"/>
			</g>
			<g>
				<path style="fill:#FFFFFF;" d="M281.044,111.706c2.312,1.335,4.014,4.148,4.007,6.645c-0.007,2.496-1.719,3.339-4.031,2.004
					c-2.32-1.34-4.022-4.153-4.015-6.649C277.012,111.209,278.724,110.367,281.044,111.706z M281.025,118.411
					c1.094,0.632,1.95,0.179,1.954-1.256c0.004-1.436-0.847-2.864-1.941-3.496c-1.102-0.636-1.958-0.193-1.962,1.243
					C279.072,116.337,279.923,117.775,281.025,118.411"/>
			</g>
			<g>
				<path style="fill:#FFFFFF;" d="M289.796,116.76c2.312,1.335,4.014,4.148,4.007,6.645c-0.007,2.496-1.719,3.339-4.032,2.004
					c-2.32-1.339-4.022-4.153-4.015-6.649C285.764,116.262,287.477,115.42,289.796,116.76z M289.777,123.464
					c1.094,0.632,1.95,0.179,1.954-1.256c0.004-1.435-0.847-2.864-1.941-3.496c-1.102-0.636-1.958-0.193-1.962,1.243
					C287.825,121.39,288.676,122.828,289.777,123.464"/>
			</g>
			<g>
				<path style="fill:#FFFFFF;" d="M302.087,137.582l-0.013,4.609c-0.007,2.488-1.268,3.153-3.409,1.916
					c-2.142-1.237-3.402-3.358-3.395-5.845l0.013-4.609l2.048,1.183l-0.013,4.538c-0.004,1.426,0.514,2.297,1.375,2.794
					c0.846,0.488,1.359,0.213,1.363-1.213l0.013-4.538L302.087,137.582z"/>
			</g>
			<g>
				<polygon style="fill:#FFFFFF;" points="306.3,126.457 306.299,134.789 304.414,133.701 304.411,129.278 302.538,131.796 
					301.623,131.268 299.786,126.733 299.774,131.022 297.881,129.929 297.904,121.61 299.588,122.582 302.119,128.848 
					304.616,125.485 				"/>
			</g>
			<g>
				<polygon style="fill:#FFFFFF;" points="309.155,141.663 309.15,143.482 305.504,141.376 305.499,142.776 308.712,144.63 
					308.707,146.396 305.495,144.541 305.49,146.057 309.269,148.238 309.264,150.057 303.452,146.702 303.476,138.383 				"/>
			</g>
			<g>
				<path style="fill:#FFFFFF;" d="M312.119,129.817l3.181,10.169l-2.134-1.232l-0.562-1.95l-3.057-1.765l-0.579,1.291l-2.087-1.205
					l3.22-6.473L312.119,129.817z M310.15,133.654l1.862,1.075l-0.923-3.203L310.15,133.654"/>
			</g>
			<g>
				<path style="fill:#FFFFFF;" d="M313.253,143.867c0.947,0.547,1.916,1.356,2.628,2.241l-0.634,1.385
					c-0.697-0.831-1.379-1.439-2.008-1.802c-0.861-0.497-1.173-0.347-1.174,0.072c-0.004,1.266,4.104,2.691,4.095,5.758
					c-0.004,1.444-1.063,2.074-3.212,0.833c-1.187-0.686-2.365-1.741-3.047-2.679l0.68-1.34c0.635,0.849,1.549,1.716,2.388,2.2
					c0.846,0.488,1.18,0.405,1.181,0.003c0.004-1.32-4.119-2.735-4.11-5.829C310.045,143.23,311.103,142.626,313.253,143.867z"/>
			</g>
			<g>
				<polygon style="fill:#FFFFFF;" points="322.796,135.981 322.772,144.3 321.081,143.323 317.904,137.051 317.891,141.482 
					315.882,140.322 315.905,132.003 317.589,132.975 320.773,139.252 320.786,134.821 				"/>
			</g>
			<g>
				<polygon style="fill:#FFFFFF;" points="330.896,140.658 328.103,144.386 328.095,147.373 326.054,146.195 326.063,143.172 
					323.315,136.281 325.473,137.527 327.186,141.82 328.91,139.511 				"/>
			</g>
			<g>
				<polygon style="fill:#FFFFFF;" points="285.327,127.905 285.322,129.724 281.675,127.619 281.671,129.018 284.883,130.873 
					284.878,132.638 281.666,130.784 281.662,132.299 285.448,134.486 285.443,136.304 279.632,132.949 279.655,124.631 				"/>
			</g>
			<g>
				<path style="fill:#FFFFFF;" d="M293.731,140.839l0.881,1.723c-0.483,0.4-1.198,0.353-2.028-0.126
					c-1.179-0.681-1.954-1.592-3.16-3.736c-1.9-1.472-3.214-3.919-3.208-6.112c0.007-2.496,1.711-3.343,4.031-2.004
					c2.312,1.335,4.014,4.148,4.007,6.645c-0.005,1.89-0.987,2.833-2.471,2.592c0.286,0.522,0.534,0.782,0.844,0.961
					C293.023,141.011,293.404,141.034,293.731,140.839z M290.228,137.281c1.094,0.632,1.958,0.193,1.962-1.243
					c0.004-1.444-0.854-2.878-1.948-3.51c-1.094-0.632-1.958-0.193-1.962,1.252C288.275,135.216,289.134,136.649,290.228,137.281"/>
			</g>
			<g>
				<polygon style="fill:#FFFFFF;" points="322.819,149.551 322.814,151.415 320.603,150.138 320.584,156.593 318.536,155.411 
					318.554,148.956 316.335,147.674 316.34,145.811 				"/>
			</g>
			<g>
				<path style="fill:#FFFFFF;" d="M326.389,151.452c0.947,0.547,1.916,1.356,2.628,2.241l-0.634,1.385
					c-0.697-0.831-1.379-1.439-2.008-1.802c-0.854-0.493-1.165-0.342-1.166,0.077c-0.004,1.266,4.104,2.691,4.095,5.758
					c-0.004,1.444-1.063,2.074-3.212,0.834c-1.195-0.69-2.373-1.745-3.054-2.683l0.68-1.34c0.643,0.853,1.549,1.716,2.388,2.2
					c0.846,0.488,1.18,0.405,1.181,0.003c0.004-1.32-4.119-2.735-4.11-5.829C323.181,150.814,324.24,150.211,326.389,151.452z"/>
			</g>
		</g>
	</g>
</g>
</svg>
